# xmcd
#
# Track frame offsets: 
#        150
#        17271
#        32206
#        47407
#        64879
#        82848
#        99918
#        116413
#        132805
#        149867
#        167293
#
# Disc length: 2415 seconds
#
# Revision: 0
# Processed by: cddbd v1.5.2PL0 Copyright (c) Steve Scherf et al.
# Submitted via: ExactAudioCopy v1.0b1
#
DISCID=81096d0b
DTITLE=Tonja Rose - The Heart Of Me
DYEAR=2009
DGENRE=Country
TTITLE0=Be Myself
TTITLE1=Dead End Roads and Rain
TTITLE2=I'll Never Give You Up
TTITLE3=Room Without A View
TTITLE4=Cure For The Common Life
TTITLE5=Who I Am Ain't Who I Was
TTITLE6=Where Would Your Heart Be
TTITLE7=Just Like Him
TTITLE8=Dancin'
TTITLE9=Hearts Are Made To Give Away
TTITLE10=Jesus On The Mainline
EXTD=
EXTT0=
EXTT1=
EXTT2=
EXTT3=
EXTT4=
EXTT5=
EXTT6=
EXTT7=
EXTT8=
EXTT9=
EXTT10=
PLAYORDER=
